<?xml version="1.0" standalone="no"?><!-- Generator: Gravit.io --><svg xmlns="http://www.w3.org/2000/svg" xmlns:xlink="http://www.w3.org/1999/xlink" style="isolation:isolate" viewBox="0 0 300 300" width="300" height="300"><path d=" M 36.75 118.333 L 262.75 118.333 M 36.75 174.667 L 262.75 174.667 M 36.75 231 L 262.75 231 M 36.75 62 L 262.75 62" fill-rule="evenodd" fill="none" vector-effect="non-scaling-stroke" stroke-width="5" stroke="rgb(240,240,240)" stroke-linejoin="miter" stroke-linecap="round" stroke-miterlimit="3"/><path d=" M 150 26.5 L 150 118 M 239.25 26.25 L 239.25 273.25 M 60.25 26.25 L 60.25 273.25" fill-rule="evenodd" fill="none" vector-effect="non-scaling-stroke" stroke-width="5" stroke="rgb(240,240,240)" stroke-linejoin="miter" stroke-linecap="round" stroke-miterlimit="3"/><path d=" M 118.335 108.525 L 101.665 108.525 L 101.665 71.855 L 106.951 71.855 L 106.951 102.69 L 118.335 102.701 L 118.335 108.525 Z  M 142.273 108.525 L 125.602 108.525 L 125.602 71.855 L 130.888 71.855 L 130.888 102.69 L 142.273 102.701 L 142.273 108.525 Z  M 95.701 108.525 L 89.733 108.525 L 88.405 100.652 L 76.643 100.652 L 75.278 108.525 L 69.273 108.525 L 78.071 71.705 L 86.792 71.705 L 95.701 108.525 Z " fill-rule="evenodd" fill="rgb(250,250,250)"/><path d=" M 97.047 110.167 L 88.391 110.167 L 86.948 102.701 L 77.43 102.701 L 75.947 110.167 L 67.25 110.167 L 76.808 70.167 L 87.369 70.167 L 97.047 110.167 Z  M 79.073 93.872 L 85.305 93.872 L 84.042 87.333 L 84.042 87.333 Q 83.601 85.153 82.97 81.693 L 82.97 81.693 L 82.97 81.693 Q 82.339 78.232 82.139 76.733 L 82.139 76.733 L 82.139 76.733 Q 81.958 78.123 81.427 81.311 L 81.427 81.311 L 81.427 81.311 Q 80.896 84.499 79.073 93.872 L 79.073 93.872 Z  M 119.41 110.167 L 100.213 110.167 L 100.213 70.33 L 108.128 70.33 L 108.128 101.475 L 119.41 101.475 L 119.41 110.167 Z  M 143.296 110.167 L 124.099 110.167 L 124.099 70.33 L 132.014 70.33 L 132.014 101.475 L 143.296 101.475 L 143.296 110.167 Z " fill-rule="evenodd" fill="none" vector-effect="non-scaling-stroke" stroke-width="0.498" stroke="rgb(0,0,0)" stroke-linejoin="miter" stroke-linecap="square" stroke-miterlimit="3"/><path d=" M 231.095 155.554 L 231.095 155.554 L 231.095 155.554 Q 230.095 158.226 228.747 161.074 L 228.747 161.074 L 228.747 161.074 Q 228.4 161.923 225.861 163.502 L 225.861 163.502 L 225.861 163.502 Q 223.322 165.082 219.904 165.082 L 219.904 165.082 L 219.904 165.082 Q 217.052 165.082 215.119 164.528 L 215.119 164.528 L 215.119 164.528 Q 213.185 163.975 211.095 162.598 L 211.095 162.598 L 211.095 156.094 L 211.095 156.094 Q 213.302 157.66 215.685 158.537 L 215.685 158.537 L 215.685 158.537 Q 218.068 159.415 220.06 159.415 L 220.06 159.415 L 220.06 159.415 Q 223.779 158.415 224.58 157.591 L 224.58 157.591 L 224.58 157.591 Q 225.38 156.768 225.38 155.472 L 225.38 155.472 L 225.38 155.472 Q 225.38 154.662 225.058 154.054 L 225.058 154.054 L 225.058 154.054 Q 224.736 153.447 224.023 152.826 L 224.023 152.826 L 224.023 152.826 Q 222.31 151.205 219.224 149.288 L 219.224 149.288 L 219.224 149.288 Q 212.638 145.238 211.964 143.105 L 211.964 143.105 L 211.964 143.105 Q 211.29 140.972 211.29 138.056 L 211.29 138.056 L 211.29 138.056 Q 211.29 133.602 214.162 130.551 L 214.162 130.551 L 214.162 130.551 Q 217.033 127.5 222.052 127.5 L 222.052 127.5 L 222.052 127.5 Q 226.486 127.5 231.095 130.335 L 231.095 130.335 L 228.66 135.193 Q 228.016 134.806 226.596 134.548 C 224.704 134.204 223.111 134.032 221.818 134.032 Q 219.314 134.032 218.63 134.761 L 217.63 136.761 Q 217.947 139.731 218.816 140.649 L 220.816 141.649 Q 220.685 141.567 224.533 143.997 L 224.533 143.997 L 224.533 143.997 Q 228.224 146.292 229.66 148.925 L 229.66 148.925 L 229.66 148.925 Q 231.095 151.558 231.095 155.554 Z  M 197.512 134.261 L 197.512 164.63 L 191.669 164.63 L 191.669 134.261 L 183.467 134.261 L 183.581 128.5 L 205.581 128.5 L 205.581 134.261 L 197.512 134.261 Z  M 176.419 128.976 L 176.419 164.565 L 168 164.565 L 155.445 136.771 L 153.419 136.771 L 153.419 164.565 L 148.419 164.565 L 148.419 128.976 L 157.799 128.976 L 169.041 155.771 L 171.419 155.771 L 171.419 128.976 L 176.419 128.976 Z  M 139.097 164.173 L 132.765 164.173 L 132.765 128.976 L 139.097 128.976 L 139.097 164.173 Z  M 124.733 146.06 L 124.733 146.06 L 124.733 146.06 Q 124.733 155.167 121.042 159.905 L 121.042 159.905 L 121.042 159.905 Q 117.35 164.644 110.233 164.644 L 110.233 164.644 L 110.233 164.644 Q 103.217 164.644 99.475 159.881 L 99.475 159.881 L 99.475 159.881 Q 95.733 155.117 95.733 146.01 L 95.733 146.01 L 95.733 146.01 Q 95.733 137.002 99.455 132.251 L 99.455 132.251 L 99.455 132.251 Q 103.177 127.5 110.274 127.5 L 110.274 127.5 L 110.274 127.5 Q 117.391 127.5 121.062 132.214 L 121.062 132.214 L 121.062 132.214 Q 124.733 136.928 124.733 146.06 Z  M 89.5 139.638 L 89.5 139.638 L 89.5 139.638 Q 89.5 145.507 86.64 148.704 L 86.64 148.704 L 86.64 148.704 Q 83.78 151.902 78.515 151.902 L 78.515 151.902 L 74.318 151.902 L 74.318 163.519 L 68.5 163.519 L 68.5 128.5 L 78.515 128.5 L 78.515 128.5 Q 83.998 128.5 86.749 131.398 L 86.749 131.398 L 86.749 131.398 Q 89.5 134.297 89.5 139.638 Z " fill-rule="evenodd" fill="rgb(250,250,250)"/><path d=" M 90.552 139.47 L 90.552 139.47 L 90.552 139.47 Q 90.552 145.982 87.378 149.53 L 87.378 149.53 L 87.378 149.53 Q 84.205 153.078 78.363 153.078 L 78.363 153.078 L 75.925 153.078 L 75.925 165.968 L 67.25 165.968 L 67.25 127.111 L 78.363 127.111 L 78.363 127.111 Q 84.446 127.111 87.499 130.327 L 87.499 130.327 L 87.499 130.327 Q 90.552 133.543 90.552 139.47 Z  M 75.925 135.59 L 75.925 144.52 L 77.506 144.52 L 77.506 144.52 Q 79.461 144.52 80.614 143.191 L 80.614 143.191 L 80.614 143.191 Q 81.767 141.862 81.767 139.523 L 81.767 139.523 L 81.767 139.523 Q 81.767 135.59 78.165 135.59 L 78.165 135.59 L 75.925 135.59 Z  M 125.713 146.487 L 125.713 146.487 L 125.713 146.487 Q 125.713 156.294 121.738 161.397 L 121.738 161.397 L 121.738 161.397 Q 117.762 166.5 110.098 166.5 L 110.098 166.5 L 110.098 166.5 Q 102.543 166.5 98.513 161.37 L 98.513 161.37 L 98.513 161.37 Q 94.483 156.241 94.483 146.434 L 94.483 146.434 L 94.483 146.434 Q 94.483 136.733 98.491 131.616 L 98.491 131.616 L 98.491 131.616 Q 102.499 126.5 110.142 126.5 L 110.142 126.5 L 110.142 126.5 Q 117.806 126.5 121.76 131.576 L 121.76 131.576 L 121.76 131.576 Q 125.713 136.653 125.713 146.487 Z  M 103.619 146.487 L 103.619 146.487 L 103.619 146.487 Q 103.619 157.756 110.098 157.756 L 110.098 157.756 L 110.098 157.756 Q 113.392 157.756 114.984 155.018 L 114.984 155.018 L 114.984 155.018 Q 116.577 152.281 116.577 146.487 L 116.577 146.487 L 116.577 146.487 Q 116.577 140.666 114.962 137.889 L 114.962 137.889 L 114.962 137.889 Q 113.348 135.111 110.142 135.111 L 110.142 135.111 L 110.142 135.111 Q 103.619 135.111 103.619 146.487 Z  M 140.23 165.968 L 131.511 165.968 L 131.511 127.111 L 140.23 127.111 L 140.23 165.968 Z  M 177.74 127.111 L 177.74 165.968 L 166.364 165.968 L 154.637 138.593 L 154.439 138.593 L 154.439 138.593 Q 154.856 145.051 154.856 148.453 L 154.856 148.453 L 154.856 165.968 L 147.169 165.968 L 147.169 127.111 L 158.502 127.111 L 170.186 154.115 L 170.317 154.115 L 170.317 154.115 Q 170.01 148.241 170.01 144.679 L 170.01 144.679 L 170.01 127.111 L 177.74 127.111 Z  M 198.846 135.696 L 198.846 165.968 L 190.171 165.968 L 190.171 135.696 L 182.331 135.696 L 182.331 127.111 L 206.664 127.111 L 206.664 135.696 L 198.846 135.696 Z  M 232.25 154.168 L 232.25 154.168 L 232.25 154.168 Q 232.25 157.782 230.735 160.586 L 230.735 160.586 L 230.735 160.586 Q 229.219 163.39 226.364 164.945 L 226.364 164.945 L 226.364 164.945 Q 223.509 166.5 219.666 166.5 L 219.666 166.5 L 219.666 166.5 Q 216.459 166.5 214.285 165.955 L 214.285 165.955 L 214.285 165.955 Q 212.111 165.41 209.761 164.055 L 209.761 164.055 L 209.761 154.699 L 209.761 154.699 Q 212.243 156.241 214.922 157.105 L 214.922 157.105 L 214.922 157.105 Q 217.601 157.968 219.842 157.968 L 219.842 157.968 L 219.842 157.968 Q 221.774 157.968 222.675 157.158 L 222.675 157.158 L 222.675 157.158 Q 223.575 156.347 223.575 155.071 L 223.575 155.071 L 223.575 155.071 Q 223.575 154.274 223.213 153.676 L 223.213 153.676 L 223.213 153.676 Q 222.85 153.078 222.049 152.467 L 222.049 152.467 L 222.049 152.467 Q 221.247 151.855 217.777 149.968 L 217.777 149.968 L 217.777 149.968 Q 214.637 148.241 213.066 146.62 L 213.066 146.62 L 213.066 146.62 Q 211.496 144.998 210.738 142.899 L 210.738 142.899 L 210.738 142.899 Q 209.981 140.799 209.981 137.929 L 209.981 137.929 L 209.981 137.929 Q 209.981 132.56 213.209 129.556 L 213.209 129.556 L 213.209 129.556 Q 216.437 126.553 222.082 126.553 L 222.082 126.553 L 222.082 126.553 Q 227.067 126.553 232.25 129.344 L 232.25 129.344 L 229.593 137.45 L 229.593 137.45 Q 225.09 134.952 221.818 134.952 L 221.818 134.952 L 221.818 134.952 Q 220.127 134.952 219.358 135.669 L 219.358 135.669 L 219.358 135.669 Q 218.59 136.387 218.59 137.45 L 218.59 137.45 L 218.59 137.45 Q 218.59 138.593 219.567 139.497 L 219.567 139.497 L 219.567 139.497 Q 220.544 140.4 224.871 142.792 L 224.871 142.792 L 224.871 142.792 Q 229.022 145.051 230.636 147.643 L 230.636 147.643 L 230.636 147.643 Q 232.25 150.234 232.25 154.168 Z " fill-rule="evenodd" fill="none" vector-effect="non-scaling-stroke" stroke-width="0.515" stroke="rgb(0,0,0)" stroke-linejoin="miter" stroke-linecap="square" stroke-miterlimit="3"/><path d=" M 230.651 210.571 L 230.651 210.571 L 230.651 210.571 Q 230.651 213.696 229.438 216.12 L 229.438 216.12 L 229.438 216.12 L 225.94 219.888 L 225.94 219.888 Q 223.655 221.232 220.579 221.232 L 220.579 221.232 L 220.579 221.232 Q 218.012 221.232 216.272 220.761 L 216.272 220.761 L 216.272 220.761 Q 214.532 220.29 212.651 219.118 L 212.651 219.118 L 212.651 213.031 L 212.651 213.031 Q 216.637 215.363 218.782 216.11 L 218.782 216.11 L 218.782 216.11 Q 220.926 215.857 222.719 215.857 L 222.719 215.857 L 222.719 215.857 Q 224.266 214.857 224.987 214.156 L 224.987 214.156 L 224.987 214.156 Q 225.708 213.455 225.708 212.352 L 225.708 212.352 L 225.708 212.352 Q 225.708 210.663 225.418 210.146 L 225.418 210.146 L 225.418 210.146 Q 225.128 208.629 224.486 208.101 L 224.486 208.101 L 224.486 208.101 Q 221.844 205.572 219.067 203.941 L 219.067 203.941 L 219.067 203.941 Q 216.553 202.447 215.297 201.046 L 215.297 201.046 L 215.297 201.046 Q 214.04 199.644 213.433 197.829 L 213.433 197.829 L 213.433 197.829 Q 212.827 196.014 212.827 193.532 L 212.827 193.532 L 212.827 193.532 Q 212.827 189.891 215.411 187.295 L 215.411 187.295 L 215.411 187.295 Q 217.995 184.698 222.512 184.698 L 222.512 184.698 L 222.512 184.698 Q 226.503 183.698 230.651 186.111 L 230.651 186.111 L 228.524 191.119 L 228.524 191.119 Q 223.921 189.959 221.301 189.959 L 221.301 189.959 L 221.301 189.959 Q 219.948 189.959 219.333 190.579 L 219.333 190.579 L 219.333 190.579 Q 218.717 191.2 218.717 192.119 L 218.717 192.119 L 218.717 192.119 Q 217.717 195.107 218.5 195.888 L 218.5 195.888 L 218.5 195.888 Q 220.282 197.669 223.745 199.737 L 223.745 199.737 L 223.745 199.737 Q 227.067 201.69 228.359 203.93 L 228.359 203.93 L 228.359 203.93 Q 230.651 207.17 230.651 210.571 Z  M 206.151 215.008 L 206.151 220.281 L 191.151 220.281 L 191.151 185.257 L 206.151 185.257 L 206.151 190.418 L 195.977 190.418 L 195.977 199.613 L 205.546 199.613 L 205.546 204.774 L 195.977 204.774 L 195.977 215.008 L 206.151 215.008 Z  M 182.375 185.257 L 182.375 220.951 L 174.7 220.951 L 163 193.804 L 160.558 193.804 L 160.912 221.104 L 156.375 221.104 L 156.375 185.257 L 165.013 185.257 L 175.062 212.181 L 178.062 212.181 L 177.8 185.257 L 182.375 185.257 Z  M 138.242 206.571 L 133.406 206.571 L 133.406 220.336 L 128.156 220.336 L 128.156 185.257 L 136.948 185.257 L 136.948 185.257 Q 147.888 185.257 147.888 195.622 L 147.888 195.622 L 147.888 195.622 Q 146.888 201.717 142.336 205.052 L 142.336 205.052 L 150.156 220.336 L 143.932 220.336 L 138.242 206.571 Z  M 114.172 185.257 L 119.434 185.257 L 119.434 206.405 L 119.434 206.405 Q 119.434 213.302 116.447 217.087 L 116.447 217.087 L 116.447 217.087 Q 113.459 220.872 107.833 220.872 L 107.833 220.872 L 107.833 220.872 Q 102.336 220.872 99.385 217.195 L 99.385 217.195 L 99.385 217.195 Q 96.434 213.519 96.434 206.621 L 96.434 206.621 L 96.434 185.257 L 101.733 185.257 L 101.733 205.876 L 101.733 205.876 L 102.8 213.284 Q 105.866 215.966 107.944 215.966 L 107.944 215.966 L 107.944 215.966 Q 109.653 215.966 110.835 215.692 Q 111.994 215.424 113.17 213.296 Q 114.172 209.625 114.172 205.828 L 114.172 205.828 L 114.172 185.257 Z  M 68.5 220.703 L 68.5 184.76 L 77.559 184.76 L 77.559 184.76 Q 82.852 184.76 85.418 186.815 L 85.418 186.815 L 85.418 186.815 Q 87.985 188.869 87.985 193.211 L 87.985 193.211 L 87.985 193.211 Q 87.985 196.067 86.866 198.087 L 86.866 198.087 L 86.866 198.087 Q 85.747 200.107 83.917 200.687 L 83.917 200.687 L 83.917 202.919 L 83.917 202.919 Q 86.333 203.755 87.417 205.705 L 87.417 205.705 L 87.417 205.705 Q 88.5 207.655 88.5 210.766 L 88.5 210.766 L 88.5 210.766 Q 88.5 215.387 85.845 218.045 L 85.845 218.045 L 85.845 218.045 Q 83.189 220.703 78.607 220.703 L 78.607 220.703 L 68.5 220.703 Z " fill-rule="evenodd" fill="rgb(250,250,250)"/><path d=" M 67.25 222.301 L 67.25 183.392 L 77.634 183.392 L 77.634 183.392 Q 83.701 183.392 86.643 185.748 L 86.643 185.748 L 86.643 185.748 Q 89.585 188.103 89.585 193.08 L 89.585 193.08 L 89.585 193.08 Q 89.585 196.353 88.303 198.668 L 88.303 198.668 L 88.303 198.668 Q 87.02 200.984 84.923 201.649 L 84.923 201.649 L 84.923 201.915 L 84.923 201.915 Q 87.692 202.873 88.934 205.109 L 88.934 205.109 L 88.934 205.109 Q 90.176 207.344 90.176 210.911 L 90.176 210.911 L 90.176 210.911 Q 90.176 216.207 87.132 219.254 L 87.132 219.254 L 87.132 219.254 Q 84.088 222.301 78.835 222.301 L 78.835 222.301 L 67.25 222.301 Z  M 75.292 191.35 L 75.292 198.322 L 77.715 198.322 L 77.715 198.322 Q 79.446 198.322 80.393 197.391 L 80.393 197.391 L 80.393 197.391 Q 81.339 196.459 81.339 194.623 L 81.339 194.623 L 81.339 194.623 Q 81.339 191.35 77.552 191.35 L 77.552 191.35 L 75.292 191.35 Z  M 77.96 206.014 L 75.292 206.014 L 75.292 214.184 L 78.122 214.184 L 78.122 214.184 Q 81.889 214.184 81.889 210.032 L 81.889 210.032 L 81.889 210.032 Q 81.889 208.089 80.881 207.052 L 80.881 207.052 L 80.881 207.052 Q 79.873 206.014 77.96 206.014 L 77.96 206.014 Z  M 112.613 183.392 L 120.655 183.392 L 120.655 206.812 L 120.655 206.812 Q 120.655 214.45 117.347 218.642 L 117.347 218.642 L 117.347 218.642 Q 114.038 222.833 107.808 222.833 L 107.808 222.833 L 107.808 222.833 Q 101.72 222.833 98.452 218.761 L 98.452 218.761 L 98.452 218.761 Q 95.184 214.69 95.184 207.052 L 95.184 207.052 L 95.184 183.392 L 103.267 183.392 L 103.267 206.227 L 103.267 206.227 Q 103.267 210.352 104.448 212.215 L 104.448 212.215 L 104.448 212.215 Q 105.629 214.078 107.93 214.078 L 107.93 214.078 L 107.93 214.078 Q 110.394 214.078 111.503 212.228 L 111.503 212.228 L 111.503 212.228 Q 112.613 210.378 112.613 206.173 L 112.613 206.173 L 112.613 183.392 Z  M 136.984 208.143 L 134.948 208.143 L 134.948 222.301 L 126.906 222.301 L 126.906 183.392 L 136.658 183.392 L 136.658 183.392 Q 148.793 183.392 148.793 194.889 L 148.793 194.889 L 148.793 194.889 Q 148.793 201.649 143.744 205.348 L 143.744 205.348 L 152.417 222.301 L 143.296 222.301 L 136.984 208.143 Z  M 134.948 191.35 L 134.948 200.239 L 136.455 200.239 L 136.455 200.239 Q 140.669 200.239 140.669 195.368 L 140.669 195.368 L 140.669 195.368 Q 140.669 191.35 136.536 191.35 L 136.536 191.35 L 134.948 191.35 Z  M 183.467 183.392 L 183.467 222.301 L 172.92 222.301 L 162.048 194.889 L 161.864 194.889 L 161.864 194.889 Q 162.251 201.356 162.251 204.763 L 162.251 204.763 L 162.251 222.301 L 155.125 222.301 L 155.125 183.392 L 165.631 183.392 L 176.463 210.431 L 176.585 210.431 L 176.585 210.431 Q 176.3 204.55 176.3 200.984 L 176.3 200.984 L 176.3 183.392 L 183.467 183.392 Z  M 207.573 213.732 L 207.573 222.301 L 189.901 222.301 L 189.901 183.392 L 207.573 183.392 L 207.573 191.829 L 197.943 191.829 L 197.943 197.95 L 206.861 197.95 L 206.861 206.386 L 197.943 206.386 L 197.943 213.732 L 207.573 213.732 Z  M 232.25 210.485 L 232.25 210.485 L 232.25 210.485 Q 232.25 214.104 230.845 216.912 L 230.845 216.912 L 230.845 216.912 Q 229.44 219.72 226.793 221.276 L 226.793 221.276 L 226.793 221.276 Q 224.147 222.833 220.584 222.833 L 220.584 222.833 L 220.584 222.833 Q 217.611 222.833 215.595 222.288 L 215.595 222.288 L 215.595 222.288 Q 213.58 221.742 211.401 220.385 L 211.401 220.385 L 211.401 211.017 L 211.401 211.017 Q 213.702 212.561 216.186 213.425 L 216.186 213.425 L 216.186 213.425 Q 218.67 214.29 220.746 214.29 L 220.746 214.29 L 220.746 214.29 Q 222.538 214.29 223.373 213.479 L 223.373 213.479 L 223.373 213.479 Q 224.208 212.667 224.208 211.39 L 224.208 211.39 L 224.208 211.39 Q 224.208 210.591 223.872 209.992 L 223.872 209.992 L 223.872 209.992 Q 223.536 209.394 222.793 208.781 L 222.793 208.781 L 222.793 208.781 Q 222.049 208.169 218.833 206.28 L 218.833 206.28 L 218.833 206.28 Q 215.921 204.55 214.465 202.926 L 214.465 202.926 L 214.465 202.926 Q 213.01 201.303 212.307 199.201 L 212.307 199.201 L 212.307 199.201 Q 211.605 197.098 211.605 194.224 L 211.605 194.224 L 211.605 194.224 Q 211.605 188.848 214.598 185.841 L 214.598 185.841 L 214.598 185.841 Q 217.591 182.833 222.823 182.833 L 222.823 182.833 L 222.823 182.833 Q 227.445 182.833 232.25 185.628 L 232.25 185.628 L 229.786 193.745 L 229.786 193.745 Q 225.613 191.243 222.579 191.243 L 222.579 191.243 L 222.579 191.243 Q 221.011 191.243 220.298 191.962 L 220.298 191.962 L 220.298 191.962 Q 219.586 192.68 219.586 193.745 L 219.586 193.745 L 219.586 193.745 Q 219.586 194.889 220.492 195.794 L 220.492 195.794 L 220.492 195.794 Q 221.398 196.699 225.409 199.094 L 225.409 199.094 L 225.409 199.094 Q 229.257 201.356 230.754 203.951 L 230.754 203.951 L 230.754 203.951 Q 232.25 206.546 232.25 210.485 Z " fill-rule="evenodd" fill="none" vector-effect="non-scaling-stroke" stroke-width="0.497" stroke="rgb(0,0,0)" stroke-linejoin="miter" stroke-linecap="square" stroke-miterlimit="3"/><path d=" M 212.101 66.98 L 212.101 113 M 187.188 66.98 L 187.188 113 M 154.375 81.236 L 176.812 81.236 L 176.812 92.377" fill-rule="evenodd" fill="none" vector-effect="non-scaling-stroke" stroke-width="4.775" stroke="rgb(74,74,74)" stroke-linejoin="miter" stroke-linecap="square" stroke-miterlimit="3"/><path d=" M 212.347 77.6 C 212.347 71.739 217.106 66.98 222.967 66.98 C 228.828 66.98 233.587 71.739 233.587 77.6 C 233.587 83.461 228.828 88.22 222.967 88.22 C 217.106 88.22 212.347 83.461 212.347 77.6 Z  M 212.347 102.38 C 212.347 96.519 217.106 91.76 222.967 91.76 C 228.828 91.76 233.587 96.519 233.587 102.38 C 233.587 108.241 228.828 113 222.967 113 C 217.106 113 212.347 108.241 212.347 102.38 Z  M 187.188 77.6 C 187.188 71.739 191.946 66.98 197.808 66.98 C 203.669 66.98 208.428 71.739 208.428 77.6 C 208.428 83.461 203.669 88.22 197.808 88.22 C 191.946 88.22 187.188 83.461 187.188 77.6 Z  M 161.967 102.38 C 161.967 99.767 162.912 97.374 164.479 95.523 C 166.428 93.222 169.338 91.76 172.587 91.76 C 178.448 91.76 183.207 96.519 183.207 102.38 C 183.207 108.241 178.448 113 172.587 113 C 166.725 113 161.967 108.241 161.967 102.38 Z " fill-rule="evenodd" fill="none" vector-effect="non-scaling-stroke" stroke-width="6.366" stroke="rgb(140,223,161)" stroke-linejoin="miter" stroke-linecap="square" stroke-miterlimit="3"/><path d=" M 219.125 102.38 C 219.125 100.26 220.847 98.539 222.967 98.539 C 225.087 98.539 226.808 100.26 226.808 102.38 C 226.808 104.5 225.087 106.221 222.967 106.221 C 220.847 106.221 219.125 104.5 219.125 102.38 Z  M 219.125 77.395 C 219.125 75.275 220.847 73.553 222.967 73.553 C 225.087 73.553 226.808 75.275 226.808 77.395 C 226.808 79.515 225.087 81.236 222.967 81.236 C 220.847 81.236 219.125 79.515 219.125 77.395 Z  M 193.935 77.395 C 193.935 75.275 195.657 73.553 197.777 73.553 C 199.897 73.553 201.618 75.275 201.618 77.395 C 201.618 79.515 199.897 81.236 197.777 81.236 C 195.657 81.236 193.935 79.515 193.935 77.395 Z  M 168.745 102.38 C 168.745 100.26 170.466 98.539 172.587 98.539 C 174.707 98.539 176.428 100.26 176.428 102.38 C 176.428 104.5 174.707 106.221 172.587 106.221 C 170.466 106.221 168.745 104.5 168.745 102.38 Z " fill-rule="evenodd" fill="none" vector-effect="non-scaling-stroke" stroke-width="3.183" stroke="rgb(84,181,108)" stroke-linejoin="miter" stroke-linecap="square" stroke-miterlimit="3"/></svg>