<?xml version="1.0" standalone="no"?><!-- Generator: Gravit.io --><svg xmlns="http://www.w3.org/2000/svg" xmlns:xlink="http://www.w3.org/1999/xlink" style="isolation:isolate" viewBox="0 0 55 35" width="55" height="35"><g id="null"><path d=" M 38.938 2.976 L 38.938 32.024 M 23.212 2.976 L 23.212 32.024 M 2.5 11.975 L 16.662 11.975 L 16.662 19.007" fill-rule="evenodd" fill="none" vector-effect="non-scaling-stroke" stroke-width="3.014" stroke="rgb(74,74,74)" stroke-linejoin="miter" stroke-linecap="square" stroke-miterlimit="3"/><path d=" M 39.093 9.679 C 39.093 5.979 42.097 2.976 45.796 2.976 C 49.496 2.976 52.5 5.979 52.5 9.679 C 52.5 13.379 49.496 16.383 45.796 16.383 C 42.097 16.383 39.093 13.379 39.093 9.679 Z  M 39.093 25.321 C 39.093 21.621 42.097 18.617 45.796 18.617 C 49.496 18.617 52.5 21.621 52.5 25.321 C 52.5 29.021 49.496 32.024 45.796 32.024 C 42.097 32.024 39.093 29.021 39.093 25.321 Z  M 23.212 9.679 C 23.212 5.979 26.216 2.976 29.915 2.976 C 33.615 2.976 36.619 5.979 36.619 9.679 C 36.619 13.379 33.615 16.383 29.915 16.383 C 26.216 16.383 23.212 13.379 23.212 9.679 Z  M 7.292 25.321 C 7.292 23.672 7.889 22.161 8.878 20.993 C 10.108 19.54 11.945 18.617 13.995 18.617 C 17.695 18.617 20.699 21.621 20.699 25.321 C 20.699 29.021 17.695 32.024 13.995 32.024 C 10.296 32.024 7.292 29.021 7.292 25.321 Z " fill-rule="evenodd" fill="none" vector-effect="non-scaling-stroke" stroke-width="4.018" stroke="rgb(140,223,161)" stroke-linejoin="miter" stroke-linecap="square" stroke-miterlimit="3"/><path d=" M 43.372 25.321 C 43.372 23.982 44.458 22.896 45.796 22.896 C 47.135 22.896 48.221 23.982 48.221 25.321 C 48.221 26.659 47.135 27.746 45.796 27.746 C 44.458 27.746 43.372 26.659 43.372 25.321 Z  M 43.372 9.55 C 43.372 8.211 44.458 7.125 45.796 7.125 C 47.135 7.125 48.221 8.211 48.221 9.55 C 48.221 10.888 47.135 11.975 45.796 11.975 C 44.458 11.975 43.372 10.888 43.372 9.55 Z  M 27.471 9.55 C 27.471 8.211 28.558 7.125 29.896 7.125 C 31.234 7.125 32.321 8.211 32.321 9.55 C 32.321 10.888 31.234 11.975 29.896 11.975 C 28.558 11.975 27.471 10.888 27.471 9.55 Z  M 11.571 25.321 C 11.571 23.982 12.657 22.896 13.995 22.896 C 15.334 22.896 16.42 23.982 16.42 25.321 C 16.42 26.659 15.334 27.746 13.995 27.746 C 12.657 27.746 11.571 26.659 11.571 25.321 Z " fill-rule="evenodd" fill="none" vector-effect="non-scaling-stroke" stroke-width="2.009" stroke="rgb(84,181,108)" stroke-linejoin="miter" stroke-linecap="square" stroke-miterlimit="3"/></g></svg>