<?xml version="1.0" standalone="no"?><!-- Generator: Gravit.io --><svg xmlns="http://www.w3.org/2000/svg" xmlns:xlink="http://www.w3.org/1999/xlink" style="isolation:isolate" viewBox="0 0 200 200" width="200" height="200"><path d=" M 47 82.473 L 69.451 82.473 L 69.451 97.69 M 83.623 63 L 83.623 125.859 M 117.652 63 L 117.652 125.859" fill-rule="evenodd" fill="none" vector-effect="non-scaling-stroke" stroke-width="6.522" stroke="rgb(74,74,74)" stroke-linejoin="miter" stroke-linecap="square" stroke-miterlimit="3"/><path d=" M 49.174 111.353 C 49.174 107.784 50.465 104.515 52.606 101.987 C 55.268 98.844 59.242 96.847 63.68 96.847 C 71.686 96.847 78.186 103.347 78.186 111.353 C 78.186 119.359 71.686 125.859 63.68 125.859 C 55.674 125.859 49.174 119.359 49.174 111.353 Z  M 83.623 77.506 C 83.623 69.5 90.123 63 98.129 63 C 106.135 63 112.635 69.5 112.635 77.506 C 112.635 85.512 106.135 92.012 98.129 92.012 C 90.123 92.012 83.623 85.512 83.623 77.506 Z  M 117.988 111.353 C 117.988 103.347 124.488 96.847 132.494 96.847 C 140.5 96.847 147 103.347 147 111.353 C 147 119.359 140.5 125.859 132.494 125.859 C 124.488 125.859 117.988 119.359 117.988 111.353 Z  M 117.988 77.506 C 117.988 69.5 124.488 63 132.494 63 C 140.5 63 147 69.5 147 77.506 C 147 85.512 140.5 92.012 132.494 92.012 C 124.488 92.012 117.988 85.512 117.988 77.506 Z " fill-rule="evenodd" fill="none" vector-effect="non-scaling-stroke" stroke-width="8.696" stroke="rgb(140,223,161)" stroke-linejoin="miter" stroke-linecap="square" stroke-miterlimit="3"/><path d=" M 58.433 111.353 C 58.433 108.457 60.784 106.106 63.68 106.106 C 66.576 106.106 68.927 108.457 68.927 111.353 C 68.927 114.249 66.576 116.6 63.68 116.6 C 60.784 116.6 58.433 114.249 58.433 111.353 Z  M 92.84 77.226 C 92.84 74.33 95.191 71.979 98.087 71.979 C 100.983 71.979 103.334 74.33 103.334 77.226 C 103.334 80.122 100.983 82.473 98.087 82.473 C 95.191 82.473 92.84 80.122 92.84 77.226 Z  M 127.247 77.226 C 127.247 74.33 129.598 71.979 132.494 71.979 C 135.39 71.979 137.741 74.33 137.741 77.226 C 137.741 80.122 135.39 82.473 132.494 82.473 C 129.598 82.473 127.247 80.122 127.247 77.226 Z  M 127.247 111.353 C 127.247 108.457 129.598 106.106 132.494 106.106 C 135.39 106.106 137.741 108.457 137.741 111.353 C 137.741 114.249 135.39 116.6 132.494 116.6 C 129.598 116.6 127.247 114.249 127.247 111.353 Z " fill-rule="evenodd" fill="none" vector-effect="non-scaling-stroke" stroke-width="4.348" stroke="rgb(84,181,108)" stroke-linejoin="miter" stroke-linecap="square" stroke-miterlimit="3"/></svg>