<?xml version="1.0" standalone="no"?><!-- Generator: Gravit.io --><svg xmlns="http://www.w3.org/2000/svg" xmlns:xlink="http://www.w3.org/1999/xlink" style="isolation:isolate" viewBox="-0.949 0 41.898 40" width="41.898" height="40"><g id="null"><path d=" M 17.608 26 Q 4.338 23.503 2.501 20 C -0.279 14.699 10.352 10 20.01 10 C 29.669 10 40.271 14.702 37.501 20 Q 35.702 23.442 22.77 26 L 17.01 30 L 17.608 26 Z " fill="rgb(255,255,255)" vector-effect="non-scaling-stroke" stroke-width="1.5" stroke="rgb(0,0,0)" stroke-linejoin="miter" stroke-linecap="square" stroke-miterlimit="3"/><g id="null"><path d=" M 11.501 18.25 C 11.501 17.422 12.173 16.75 13.001 16.75 C 13.829 16.75 14.501 17.422 14.501 18.25 C 14.501 19.078 13.829 19.75 13.001 19.75 C 12.173 19.75 11.501 19.078 11.501 18.25 Z " fill="rgb(0,0,0)"/><path d=" M 18.501 18.25 C 18.501 17.422 19.173 16.75 20.001 16.75 C 20.829 16.75 21.501 17.422 21.501 18.25 C 21.501 19.078 20.829 19.75 20.001 19.75 C 19.173 19.75 18.501 19.078 18.501 18.25 Z " fill="rgb(0,0,0)"/><path d=" M 25.501 18.25 C 25.501 17.422 26.173 16.75 27.001 16.75 C 27.829 16.75 28.501 17.422 28.501 18.25 C 28.501 19.078 27.829 19.75 27.001 19.75 C 26.173 19.75 25.501 19.078 25.501 18.25 Z " fill="rgb(0,0,0)"/></g></g></svg>