<?xml version="1.0" standalone="no"?><!-- Generator: Gravit.io --><svg xmlns="http://www.w3.org/2000/svg" xmlns:xlink="http://www.w3.org/1999/xlink" style="isolation:isolate" viewBox="0 0 40.076 40" width="40.076" height="40"><g id="null"><path d="M 16.989 9.237 L 23.609 9.237 C 24.587 9.237 25.38 10.031 25.38 11.008 L 25.38 11.908 C 25.38 12.886 24.587 13.679 23.609 13.679 L 16.989 13.679 C 16.012 13.679 15.218 12.886 15.218 11.908 L 15.218 11.008 C 15.218 10.031 16.012 9.237 16.989 9.237 Z" style="stroke:none;fill:#FFFFFF;stroke-miterlimit:10;"/><path d="M 16.989 9.237 L 23.609 9.237 C 24.587 9.237 25.38 10.031 25.38 11.008 L 25.38 11.908 C 25.38 12.886 24.587 13.679 23.609 13.679 L 16.989 13.679 C 16.012 13.679 15.218 12.886 15.218 11.908 L 15.218 11.008 C 15.218 10.031 16.012 9.237 16.989 9.237 Z" style="fill:none;stroke:#000000;stroke-width:1.5;stroke-linecap:square;stroke-miterlimit:3;"/><path d=" M 3.257 14.302 C 4.119 12.504 36.247 12.469 37.299 14.357 Q 38.352 16.245 37.299 31.237 L 3.257 31.237 Q 2.395 16.099 3.257 14.302 Z " fill="rgb(255,255,255)" vector-effect="non-scaling-stroke" stroke-width="1.5" stroke="rgb(0,0,0)" stroke-linejoin="miter" stroke-linecap="square" stroke-miterlimit="3"/><line x1="3.257" y1="20.576" x2="37.299" y2="20.576" vector-effect="non-scaling-stroke" stroke-width="1" stroke="rgb(0,0,0)" stroke-linejoin="miter" stroke-linecap="square" stroke-miterlimit="3"/></g></svg>